# xmcd
#
# Track frame offsets:
#	150
#	21897
#	41980
#	58295
#	74142
#	88972
#	108235
#	124135
#	139735
#	154282
#	173059
#	190585
#	210865
#	227720
#	251187
#
# Disc length: 3548 seconds
#
# Revision: 1
# Processed by: cddbd v1.5.1PL0 Copyright (c) Steve Scherf et al.
# Submitted via: audiograbber 1.82.02
#
DISCID=df0dda0f
DTITLE=Various Artist - Sound Choice 8332 80's Male Country Hits Vol 2
DYEAR=1900
DGENRE=Karaoke
TTITLE0=Willie Nelson - Angel flying too close to the ground
TTITLE1=Mac Davis  - Texas in my rear view mirror
TTITLE2=George Strait - The cowboy rides away
TTITLE3=Johnny Lee - One in a million
TTITLE4=Keith Whitley - I'm over you
TTITLE5=Charlie Daniels - Long haired country boy
TTITLE6=Ricky Skaggs - Don't cheat in our home town
TTITLE7=Don Williams - If Hollywood don't need you ( honey, I still do )
TTITLE8=Conway Twitty - Between blue eyes and jeans
TTITLE9=Lee greenwood - Mornin' Ride
TTITLE10=Vince Gill - Cinderella
TTITLE11=Alabama - Why lady why
TTITLE12=George Strait - Baby's gotten good at goodbye
TTITLE13=Dan Seals - Everything that glitters ( is not gold )
TTITLE14=Vern Goslin - I can tell by the way you dance ( you're gonna love me t
TTITLE14=onight )
EXTD=
EXTT0=
EXTT1=
EXTT2=
EXTT3=
EXTT4=
EXTT5=
EXTT6=
EXTT7=
EXTT8=
EXTT9=
EXTT10=
EXTT11=
EXTT12=
EXTT13=
EXTT14=
PLAYORDER=
